<?xml version="1.0" standalone="no"?>
<!DOCTYPE svg PUBLIC "-//W3C//DTD SVG 20010904//EN"
 "http://www.w3.org/TR/2001/REC-SVG-20010904/DTD/svg10.dtd">
<svg version="1.0" xmlns="http://www.w3.org/2000/svg"
 width="178.000000pt" height="178.000000pt" viewBox="0 0 178.000000 178.000000"
 preserveAspectRatio="xMidYMid meet">
<metadata>
Created by potrace 1.14, written by Peter Selinger 2001-2017
</metadata>
<g transform="translate(0.000000,178.000000) scale(0.100000,-0.100000)"
fill="#000000" stroke="none">
<path d="M804 1672 l5 -52 -42 23 c-63 35 -80 40 -73 22 6 -17 -9 -21 -19 -5
-3 6 -11 10 -17 10 -7 0 -6 -6 2 -15 7 -8 9 -15 5 -15 -12 0 57 -66 75 -73 10
-4 8 -6 -6 -6 -49 -2 -195 -76 -258 -131 -127 -111 -203 -248 -225 -410 -41
-302 134 -590 422 -696 l62 -22 78 76 77 77 78 -77 c87 -86 76 -84 201 -26
162 74 289 223 342 398 24 78 31 220 17 305 -33 191 -194 395 -370 468 -30 13
-36 19 -32 39 5 21 4 22 -9 6 -23 -28 -29 -21 -12 13 22 41 12 49 -11 10 -25
-43 -46 -43 -24 0 7 12 7 19 1 19 -6 0 -15 -9 -21 -20 -10 -19 -17 -20 -83
-14 -46 4 -75 12 -80 21 -5 8 -22 29 -38 47 -16 18 -33 44 -39 57 -8 19 -10
14 -6 -29z"/>
<path d="M820 342 c-102 -105 -101 -89 -9 -181 l80 -81 80 80 c43 44 79 82 79
86 0 7 -155 164 -161 163 -2 0 -33 -30 -69 -67z"/>
</g>
</svg>
